<svg width="48" height="53" viewBox="0 0 48 53" fill="none" xmlns="http://www.w3.org/2000/svg">
<g filter="url(#filter0_d)">
<path d="M46 21.2646C46 26.0159 44.075 30.3501 40.9091 33.6326C37.2469 37.4296 31.9243 46.9037 26 46.9037C20.0757 46.9037 14.7531 37.4296 11.0909 33.6326C7.925 30.3501 6 26.0159 6 21.2646C6 11.0172 14.9543 2.70996 26 2.70996C37.0457 2.70996 46 11.0172 46 21.2646Z" fill="white"/>
</g>
<path d="M20.3061 13.3643H31.4494L38 19.7792L26.3518 31.1862C26.1253 31.408 25.7582 31.408 25.5317 31.1862C25.3053 30.9645 25.3053 30.6049 25.5317 30.3831L36.3599 19.7792L30.969 14.5H20.7865L17.7353 17.4881L23.0904 22.7323L29.8598 16.1031L33.2313 19.4048L23.4208 29.2578L15.4623 21.4641C15.2358 21.2423 15.2358 20.8828 15.4623 20.661C15.6887 20.4393 16.0559 20.4393 16.2823 20.661L23.4104 27.6415L31.6015 19.4149L29.8598 17.7092L23.0904 24.3384L16.0952 17.4881L20.3061 13.3643Z" fill="#214492"/>
<path d="M19.906 16.8612C20.1324 16.6394 20.4996 16.6394 20.726 16.8612L22.9241 19.0138L24.1505 17.8126C24.377 17.5908 24.7441 17.5908 24.9706 17.8126C25.1971 18.0343 25.1971 18.3939 24.9706 18.6157L22.9242 20.6199L19.906 17.6642C19.6795 17.4425 19.6795 17.0829 19.906 16.8612Z" fill="#214492"/>
<path d="M15.0227 19.6223C15.0227 19.8989 14.7938 20.1231 14.5114 20.1231C14.2289 20.1231 14 19.8989 14 19.6223C14 19.3458 14.2289 19.1216 14.5114 19.1216C14.7938 19.1216 15.0227 19.3458 15.0227 19.6223Z" fill="#214492"/>
<defs>
<filter id="filter0_d" x="0" y="0.709961" width="48" height="52.1938" filterUnits="userSpaceOnUse" color-interpolation-filters="sRGB">
<feFlood flood-opacity="0" result="BackgroundImageFix"/>
<feColorMatrix in="SourceAlpha" type="matrix" values="0 0 0 0 0 0 0 0 0 0 0 0 0 0 0 0 0 0 127 0"/>
<feOffset dx="-2" dy="2"/>
<feGaussianBlur stdDeviation="2"/>
<feColorMatrix type="matrix" values="0 0 0 0 0 0 0 0 0 0 0 0 0 0 0 0 0 0 0.33 0"/>
<feBlend mode="normal" in2="BackgroundImageFix" result="effect1_dropShadow"/>
<feBlend mode="normal" in="SourceGraphic" in2="effect1_dropShadow" result="shape"/>
</filter>
</defs>
</svg>
