<svg width="36" height="36" viewBox="0 0 36 36" fill="none" xmlns="http://www.w3.org/2000/svg">
<path fill-rule="evenodd" clip-rule="evenodd" d="M22.0686 21.0943H23.1527L30 27.9554L27.9554 30L21.0943 23.1527V22.0686L20.7238 21.6844C19.1595 23.0292 17.1286 23.8388 14.9194 23.8388C9.99314 23.8388 6 19.8456 6 14.9194C6 9.99314 9.99314 6 14.9194 6C19.8456 6 23.8388 9.99314 23.8388 14.9194C23.8388 17.1286 23.0292 19.1595 21.6844 20.7238L22.0686 21.0943ZM8.7443 14.9193C8.7443 18.3361 11.5024 21.0942 14.9193 21.0942C18.3361 21.0942 21.0942 18.3361 21.0942 14.9193C21.0942 11.5024 18.3361 8.7443 14.9193 8.7443C11.5024 8.7443 8.7443 11.5024 8.7443 14.9193Z" fill="#474A4C"/>
</svg>
