<svg width="36" height="36" viewBox="0 0 36 36" fill="none" xmlns="http://www.w3.org/2000/svg">
<path d="M10 16.5C9.17 16.5 8.5 17.17 8.5 18C8.5 18.83 9.17 19.5 10 19.5C10.83 19.5 11.5 18.83 11.5 18C11.5 17.17 10.83 16.5 10 16.5ZM10 10.5C9.17 10.5 8.5 11.17 8.5 12C8.5 12.83 9.17 13.5 10 13.5C10.83 13.5 11.5 12.83 11.5 12C11.5 11.17 10.83 10.5 10 10.5ZM10 22.5C9.17 22.5 8.5 23.18 8.5 24C8.5 24.82 9.18 25.5 10 25.5C10.82 25.5 11.5 24.82 11.5 24C11.5 23.18 10.83 22.5 10 22.5ZM13 25H27V23H13V25ZM13 19H27V17H13V19ZM13 11V13H27V11H13Z" fill="#474A4C"/>
</svg>
