<svg width="270" height="138" viewBox="0 0 270 138" fill="none" xmlns="http://www.w3.org/2000/svg">
<path d="M114.552 0.599609H154.57L178.094 24.1237L136.263 65.9542C135.45 66.7674 134.132 66.7674 133.318 65.9542C132.505 65.141 132.505 63.8225 133.318 63.0093L172.204 24.1237L152.845 4.76435H116.277L105.32 15.722L124.551 34.953L148.861 10.6432L160.969 22.7509L125.738 58.8826L97.1574 30.3023C96.3442 29.4891 96.3442 28.1706 97.1574 27.3574C97.9706 26.5442 99.2891 26.5442 100.102 27.3574L125.7 52.9554L155.116 22.7878L148.861 16.533L124.551 40.8428L99.4305 15.7221L114.552 0.599609Z" fill="white"/>
<path d="M113.115 13.4231C113.929 12.6099 115.247 12.6099 116.06 13.4231L123.954 21.3168L128.358 16.9121C129.172 16.0989 130.49 16.0988 131.303 16.912C132.117 17.7252 132.117 19.0436 131.303 19.8569L123.954 27.2068L113.115 16.368C112.302 15.5548 112.302 14.2363 113.115 13.4231Z" fill="white"/>
<path d="M95.579 23.5485C95.579 24.5627 94.7568 25.3848 93.7426 25.3848C92.7284 25.3848 91.9062 24.5627 91.9062 23.5485C91.9062 22.5343 92.7284 21.7121 93.7426 21.7121C94.7568 21.7121 95.579 22.5343 95.579 23.5485Z" fill="white"/>
<path d="M27.2451 89.5967C24.3708 86.7628 20.6059 85.3459 16.841 85.3459C7.89421 85.3459 2.10512 91.4994 2.14561 100.163C2.14561 107.814 6.9631 114.575 16.841 114.575C21.2536 114.575 24.7757 112.915 27.6905 109.919V98.9483H15.7075V101.58H24.9781V108.745C22.6301 110.85 19.6748 111.822 16.841 111.822C8.90629 111.822 4.97942 106.316 4.97942 100.122C4.93894 93.7664 9.1087 88.0178 16.841 88.0178C19.8772 88.0178 23.2373 89.1109 25.5449 91.4184L27.2451 89.5967ZM54.4931 111.498H37.0044V101.296H53.3596V98.6649H37.0044V88.5036H54.1288V85.8317H34.1706C34.1706 95.2643 34.1706 104.737 34.1706 114.17H54.4931V111.498ZM72.8921 85.3459C63.7024 85.3459 58.5206 92.0661 58.5206 100.041C58.5206 107.49 63.2571 114.696 72.8921 114.696C82.4866 114.696 87.1826 107.49 87.2231 100.082C87.2636 92.5114 82.4866 85.3864 72.8921 85.3459ZM61.3544 100.082C61.2734 93.4021 65.2813 88.0178 72.8921 88.0178C80.6244 88.0583 84.3893 93.7259 84.3893 100.082C84.3488 106.154 80.6244 112.024 72.8921 112.024C65.1598 112.024 61.4354 106.276 61.3544 100.082ZM93.2744 85.8317V114.17H111.856V111.498H96.1082V85.8317H93.2744ZM138.666 114.17H141.662L128.95 85.8317H126.116L113.404 114.17H116.4L119.315 107.612H135.751L138.666 114.17ZM127.533 88.9085L134.617 105.021H120.448L127.533 88.9085ZM149.282 100.972C152.52 100.972 155.516 100.972 158.714 100.972C162.115 100.972 165.961 102.551 166.001 106.478C166.001 110.486 161.751 111.498 158.512 111.498H149.282V100.972ZM149.282 88.4631H158.512C161.994 88.4631 165.151 89.7586 165.151 93.564C165.151 97.0051 162.115 98.3815 158.714 98.3815H149.282V88.4631ZM146.448 85.8317V114.17C150.658 114.17 154.302 114.17 158.512 114.17C163.613 114.17 168.835 112.389 168.835 106.519C168.835 103.644 167.013 100.649 163.532 99.6365C166.285 98.7054 167.985 96.3573 167.985 93.6045C167.985 88.0178 163.491 85.8317 158.512 85.8317H146.448ZM196.327 114.17H203.169L190.457 85.8317H183.575L170.863 114.17H177.665L179.729 109.312H194.263L196.327 114.17ZM191.874 103.725H182.118L187.016 92.2281L191.874 103.725ZM234.043 99.9603C234.043 90.6087 227.89 85.103 218.822 85.103C209.754 85.103 203.519 90.6087 203.519 99.9603C203.519 109.312 209.754 114.818 218.822 114.818C221.939 114.818 224.692 114.17 226.999 112.955L230.44 116.477L234.853 112.105L231.574 108.786C233.153 106.438 234.043 103.482 234.043 99.9603ZM227.849 99.9603C228.052 105.021 224.327 109.069 218.822 109.069C213.437 109.069 209.713 105.385 209.713 99.9603C209.713 94.6975 213.437 90.8516 218.822 90.8516C224.327 90.8516 227.849 94.6571 227.849 99.9603ZM245.137 91.8232H252.181C255.177 91.8232 256.715 93.8474 256.715 96.1144C256.715 98.3815 255.217 100.365 252.181 100.365H245.137V91.8232ZM252.181 106.154C259.387 106.073 263.031 101.661 263.031 95.993C263.031 90.5278 259.428 85.8317 252.181 85.8317C247.687 85.8317 243.356 85.8317 238.822 85.8317V114.17H245.137V106.154H252.181Z" fill="white"/>
<path d="M4.70724 128.314V134.891H9.22617V133.914H5.75946V128.314H4.70724ZM15.5011 134.891H16.6191L13.6691 128.314H12.523L9.57297 134.891H10.691L11.311 133.51H14.8717L15.5011 134.891ZM14.4865 132.551H11.7056L13.096 129.423L14.4865 132.551ZM18.6632 131.978C19.3303 131.978 19.9785 131.978 20.6455 131.978C21.2468 131.978 22.0266 132.298 22.0266 133.002C22.0266 133.726 21.2186 133.914 20.6361 133.914H18.6632V131.978ZM18.6632 129.263H20.6361C21.4253 129.263 21.8293 129.752 21.8293 130.212C21.8293 130.729 21.4347 131.039 20.6455 131.039H18.6632V129.263ZM17.6204 128.314V134.891C18.6444 134.891 19.6121 134.891 20.6361 134.891C21.9326 134.891 23.0788 134.449 23.0788 133.012C23.0788 132.514 22.75 131.734 21.9608 131.499C22.5809 131.245 22.8721 130.747 22.8721 130.193C22.8721 128.887 21.8857 128.314 20.6361 128.314H17.6204ZM27.4175 128.192C25.4352 128.192 24.0354 129.639 24.0354 131.64C24.0354 133.369 25.1158 135.032 27.3988 135.032C29.6817 135.032 30.7621 133.406 30.7621 131.631C30.7621 129.855 29.6629 128.201 27.4175 128.192ZM25.0782 131.649C25.0782 130.212 25.8956 129.15 27.4175 129.15C29.0241 129.179 29.7193 130.437 29.7193 131.649C29.7193 132.908 29.0335 134.064 27.3988 134.064C25.7734 134.064 25.097 132.814 25.0782 131.649ZM37.6642 134.703L35.7006 132.514C36.9971 132.326 37.4857 131.405 37.4857 130.466C37.4857 129.357 36.6871 128.314 35.1651 128.314C34.1411 128.314 33.1265 128.305 32.1024 128.305V134.891H33.1546V132.617H34.5451L36.5462 134.891H37.7769L37.6642 134.703ZM35.1651 129.273C36.0295 129.273 36.4147 129.893 36.4147 130.484C36.4147 131.104 36.0295 131.659 35.1557 131.659H33.1546V129.273H35.1651ZM44.1532 134.891H45.2712L42.3212 128.314H41.1751L38.2251 134.891H39.3431L39.9631 133.51H43.5238L44.1532 134.891ZM43.1386 132.551H40.3577L41.7481 129.423L43.1386 132.551ZM47.1699 134.891H48.2316V129.263H50.383V128.314C48.4946 128.314 46.8975 128.314 45.0091 128.314V129.263H47.1699V134.891ZM54.2622 128.192C52.2799 128.192 50.8801 129.639 50.8801 131.64C50.8801 133.369 51.9605 135.032 54.2435 135.032C56.5264 135.032 57.6068 133.406 57.6068 131.631C57.6068 129.855 56.5076 128.201 54.2622 128.192ZM51.9229 131.649C51.9229 130.212 52.7403 129.15 54.2622 129.15C55.8688 129.179 56.564 130.437 56.564 131.649C56.564 132.908 55.8782 134.064 54.2435 134.064C52.6181 134.064 51.9417 132.814 51.9229 131.649ZM64.5089 134.703L62.5453 132.514C63.8418 132.326 64.3304 131.405 64.3304 130.466C64.3304 129.357 63.5318 128.314 62.0098 128.314C60.9858 128.314 59.9712 128.305 58.9471 128.305V134.891H59.9993V132.617H61.3898L63.3909 134.891H64.6216L64.5089 134.703ZM62.0098 129.273C62.8742 129.273 63.2594 129.893 63.2594 130.484C63.2594 131.104 62.8742 131.659 62.0004 131.659H59.9993V129.273H62.0098ZM66.8548 134.891V128.314H65.812V134.891H66.8548ZM71.5814 128.192C69.5991 128.192 68.1993 129.639 68.1993 131.64C68.1993 133.369 69.2797 135.032 71.5626 135.032C73.8456 135.032 74.926 133.406 74.926 131.631C74.926 129.855 73.8268 128.201 71.5814 128.192ZM69.2421 131.649C69.2421 130.212 70.0595 129.15 71.5814 129.15C73.188 129.179 73.8832 130.437 73.8832 131.649C73.8832 132.908 73.1974 134.064 71.5626 134.064C69.9373 134.064 69.2609 132.814 69.2421 131.649ZM78.6998 128.314V134.891C79.489 134.891 80.4003 134.891 81.1894 134.891C83.4912 134.891 84.5246 133.209 84.487 131.546C84.4588 129.921 83.4348 128.314 81.1894 128.314H78.6998ZM79.7426 129.319H81.1894C82.7396 129.319 83.416 130.428 83.4442 131.537C83.4724 132.692 82.796 133.876 81.1894 133.876H79.7426V129.319ZM90.697 133.857H86.8921V132.091H90.5185V131.114H86.8921V129.338H90.6688V128.314H85.8399C85.8399 130.503 85.8399 132.702 85.8399 134.891H90.697V133.857ZM99.3887 133.322C98.9284 133.782 98.252 134.036 97.6413 134.036C95.9408 134.036 95.2268 132.843 95.2174 131.64C95.208 130.428 95.969 129.197 97.6413 129.197C98.252 129.197 98.872 129.413 99.3418 129.874L100.046 129.197C99.3793 128.53 98.5244 128.201 97.6413 128.201C95.2926 128.201 94.1652 129.921 94.1746 131.649C94.184 133.378 95.255 135.022 97.6413 135.022C98.562 135.022 99.4357 134.712 100.112 134.045L99.3887 133.322ZM106.464 134.891H107.582L104.632 128.314H103.486L100.536 134.891H101.654L102.274 133.51H105.835L106.464 134.891ZM105.45 132.551H102.669L104.059 129.423L105.45 132.551ZM114.145 134.703L112.182 132.514C113.478 132.326 113.967 131.405 113.967 130.466C113.967 129.357 113.168 128.314 111.646 128.314C110.622 128.314 109.608 128.305 108.584 128.305V134.891H109.636V132.617H111.026L113.027 134.891H114.258L114.145 134.703ZM111.646 129.273C112.511 129.273 112.896 129.893 112.896 130.484C112.896 131.104 112.511 131.659 111.637 131.659H109.636V129.273H111.646ZM120.634 134.891H121.752L118.802 128.314H117.656L114.706 134.891H115.824L116.444 133.51H120.005L120.634 134.891ZM119.62 132.551H116.839L118.229 129.423L119.62 132.551ZM127.307 133.322C126.847 133.782 126.17 134.036 125.559 134.036C123.859 134.036 123.145 132.843 123.136 131.64C123.126 130.428 123.887 129.197 125.559 129.197C126.17 129.197 126.79 129.413 127.26 129.874L127.965 129.197C127.297 128.53 126.443 128.201 125.559 128.201C123.211 128.201 122.083 129.921 122.093 131.649C122.102 133.378 123.173 135.022 125.559 135.022C126.48 135.022 127.354 134.712 128.03 134.045L127.307 133.322ZM130.69 134.891H131.752V129.263H133.903V128.314C132.015 128.314 130.418 128.314 128.529 128.314V129.263H130.69V134.891ZM139.845 133.857H136.04V132.091H139.666V131.114H136.04V129.338H139.817V128.314H134.988C134.988 130.503 134.988 132.702 134.988 134.891H139.845V133.857ZM146.855 134.703L144.891 132.514C146.188 132.326 146.676 131.405 146.676 130.466C146.676 129.357 145.878 128.314 144.356 128.314C143.332 128.314 142.317 128.305 141.293 128.305V134.891H142.345V132.617H143.736L145.737 134.891H146.968L146.855 134.703ZM144.356 129.273C145.22 129.273 145.605 129.893 145.605 130.484C145.605 131.104 145.22 131.659 144.346 131.659H142.345V129.273H144.356ZM149.201 134.891V128.314H148.158V134.891H149.201ZM150.667 129.282H153.918L150.367 134.299V134.891H155.468V133.885H151.851L155.468 128.793V128.314H150.667V129.282ZM161.954 134.891H163.072L160.122 128.314H158.976L156.026 134.891H157.144L157.764 133.51H161.325L161.954 134.891ZM160.939 132.551H158.159L159.549 129.423L160.939 132.551ZM168.627 133.322C168.166 133.782 167.49 134.036 166.879 134.036C165.179 134.036 164.465 132.843 164.455 131.64C164.446 130.428 165.207 129.197 166.879 129.197C167.49 129.197 168.11 129.413 168.58 129.874L169.284 129.197C168.617 128.53 167.762 128.201 166.879 128.201C164.53 128.201 163.403 129.921 163.412 131.649C163.422 133.378 164.493 135.022 166.879 135.022C167.8 135.022 168.674 134.712 169.35 134.045L168.627 133.322ZM171.559 134.891V128.314H170.516V134.891H171.559ZM176.286 128.192C178.531 128.201 179.63 129.855 179.63 131.631C179.63 133.406 178.55 135.032 176.267 135.032C173.984 135.032 172.903 133.369 172.903 131.64C172.903 129.639 174.303 128.192 176.286 128.192ZM173.946 131.649C173.965 132.814 174.642 134.064 176.267 134.064C177.902 134.064 178.587 132.908 178.587 131.649C178.587 130.437 177.892 129.179 176.286 129.15C174.764 129.15 173.946 130.212 173.946 131.649ZM177.601 126.285H176.436L175.741 127.525V127.572H176.614L177.601 126.323V126.285ZM181.778 128.314H180.971V134.891H182.032V130.25L185.762 134.891H186.56V128.314H185.508V132.993L181.778 128.314ZM196.467 134.9H197.52V128.324H196.298L194.137 131.405L191.967 128.324C191.544 128.324 191.159 128.324 190.746 128.324V134.9H191.798V129.855L194.006 132.965H194.231L196.467 129.855V134.9ZM200.314 134.891V128.314H199.271V134.891H200.314ZM202.871 128.314H202.063V134.891H203.124V130.25L206.854 134.891H207.653V128.314H206.6V132.993L202.871 128.314ZM214.262 133.857H210.457V132.091H214.083V131.114H210.457V129.338H214.234V128.314H209.405C209.405 130.503 209.405 132.702 209.405 134.891H214.262V133.857ZM221.272 134.703L219.308 132.514C220.605 132.326 221.093 131.405 221.093 130.466C221.093 129.357 220.295 128.314 218.773 128.314C217.749 128.314 216.734 128.305 215.71 128.305V134.891H216.762V132.617H218.152L220.154 134.891H221.384L221.272 134.703ZM218.773 129.273C219.637 129.273 220.022 129.893 220.022 130.484C220.022 131.104 219.637 131.659 218.763 131.659H216.762V129.273H218.773ZM227.761 134.891H228.879L225.929 128.314H224.782L221.832 134.891H222.95L223.571 133.51H227.131L227.761 134.891ZM226.746 132.551H223.965L225.356 129.423L226.746 132.551ZM229.88 128.314V134.891H234.399V133.914H230.932V128.314H229.88ZM238.31 128.192C240.555 128.201 241.655 129.855 241.655 131.631C241.655 133.406 240.574 135.032 238.291 135.032C236.008 135.032 234.928 133.369 234.928 131.64C234.928 129.639 236.328 128.192 238.31 128.192ZM235.971 131.649C235.989 132.814 236.666 134.064 238.291 134.064C239.926 134.064 240.612 132.908 240.612 131.649C240.612 130.437 239.917 129.179 238.31 129.15C236.788 129.15 235.971 130.212 235.971 131.649ZM239.625 126.285H238.46L237.765 127.525V127.572H238.639L239.625 126.323V126.285ZM248.481 129.15C247.805 128.483 246.922 128.155 246.048 128.155C243.803 128.155 242.591 129.77 242.591 131.668C242.591 133.416 243.634 135.022 246.048 135.022C247.157 135.022 247.974 134.599 248.632 133.876V131.18H245.823V132.119H247.655V133.453C247.129 133.895 246.612 134.036 246.048 134.036C244.338 134.036 243.624 132.871 243.624 131.668C243.615 130.278 244.507 129.122 246.048 129.122C246.659 129.122 247.354 129.366 247.824 129.827L248.481 129.15ZM251.114 134.891V128.314H250.071V134.891H251.114ZM257.672 133.322C257.212 133.782 256.535 134.036 255.925 134.036C254.224 134.036 253.51 132.843 253.501 131.64C253.492 130.428 254.253 129.197 255.925 129.197C256.535 129.197 257.156 129.413 257.625 129.874L258.33 129.197C257.663 128.53 256.808 128.201 255.925 128.201C253.576 128.201 252.449 129.921 252.458 131.649C252.467 133.378 253.539 135.022 255.925 135.022C256.845 135.022 257.719 134.712 258.396 134.045L257.672 133.322ZM264.748 134.891H265.866L262.916 128.314H261.77L258.82 134.891H259.938L260.558 133.51H264.118L264.748 134.891ZM263.733 132.551H260.952L262.343 129.423L263.733 132.551Z" fill="white"/>
</svg>
